<svg width="32" height="23" viewBox="0 0 32 23" fill="none" xmlns="http://www.w3.org/2000/svg">
<path d="M11.4286 9.14286C11.4286 8.83975 11.549 8.54906 11.7633 8.33473C11.9776 8.12041 12.2683 8 12.5714 8H24C24.3031 8 24.5938 8.12041 24.8081 8.33473C25.0225 8.54906 25.1429 8.83975 25.1429 9.14286C25.1429 9.44596 25.0225 9.73665 24.8081 9.95098C24.5938 10.1653 24.3031 10.2857 24 10.2857H12.5714C12.2683 10.2857 11.9776 10.1653 11.7633 9.95098C11.549 9.73665 11.4286 9.44596 11.4286 9.14286ZM12.5714 14.8571H24C24.3031 14.8571 24.5938 14.7367 24.8081 14.5224C25.0225 14.3081 25.1429 14.0174 25.1429 13.7143C25.1429 13.4112 25.0225 13.1205 24.8081 12.9062C24.5938 12.6918 24.3031 12.5714 24 12.5714H12.5714C12.2683 12.5714 11.9776 12.6918 11.7633 12.9062C11.549 13.1205 11.4286 13.4112 11.4286 13.7143C11.4286 14.0174 11.549 14.3081 11.7633 14.5224C11.9776 14.7367 12.2683 14.8571 12.5714 14.8571ZM32 2.28571V19.4286C32 20.3379 31.6388 21.21 30.9958 21.8529C30.3528 22.4959 29.4807 22.8571 28.5714 22.8571H3.42857C2.52197 22.8571 1.65228 22.4981 1.00974 21.8585C0.367212 21.2189 0.00415524 20.3509 0 19.4443V5.71428C0 5.41118 0.120408 5.12049 0.334735 4.90616C0.549062 4.69184 0.839753 4.57143 1.14286 4.57143C1.44596 4.57143 1.73665 4.69184 1.95098 4.90616C2.16531 5.12049 2.28571 5.41118 2.28571 5.71428V19.4286C2.28571 19.7317 2.40612 20.0224 2.62045 20.2367C2.83478 20.451 3.12547 20.5714 3.42857 20.5714C3.73168 20.5714 4.02237 20.451 4.23669 20.2367C4.45102 20.0224 4.57143 19.7317 4.57143 19.4286V2.28571C4.57143 1.6795 4.81224 1.09812 5.2409 0.66947C5.66955 0.240815 6.25093 0 6.85714 0H29.7143C30.3205 0 30.9019 0.240815 31.3305 0.66947C31.7592 1.09812 32 1.6795 32 2.28571ZM29.7143 2.28571H6.85714V19.4286C6.85771 19.8179 6.79151 20.2045 6.66143 20.5714H28.5714C28.8745 20.5714 29.1652 20.451 29.3796 20.2367C29.5939 20.0224 29.7143 19.7317 29.7143 19.4286V2.28571Z" fill="#CEC5B3"/>
</svg>
