<svg width="32" height="27" viewBox="0 0 32 27" fill="none" xmlns="http://www.w3.org/2000/svg">
<path d="M32 13.3336C32 13.6873 31.8595 14.0264 31.6095 14.2764C31.3594 14.5265 31.0203 14.6669 30.6667 14.6669H4.55257L14.2772 24.3899C14.4011 24.5138 14.4994 24.6609 14.5664 24.8227C14.6335 24.9846 14.668 25.1581 14.668 25.3333C14.668 25.5084 14.6335 25.6819 14.5664 25.8438C14.4994 26.0056 14.4011 26.1527 14.2772 26.2766C14.1534 26.4004 14.0063 26.4987 13.8445 26.5657C13.6826 26.6328 13.5091 26.6673 13.3339 26.6673C13.1588 26.6673 12.9853 26.6328 12.8234 26.5657C12.6616 26.4987 12.5145 26.4004 12.3906 26.2766L0.391036 14.2769C0.267071 14.1531 0.168729 14.0061 0.101633 13.8442C0.0345357 13.6824 0 13.5089 0 13.3336C0 13.1584 0.0345357 12.9849 0.101633 12.8231C0.168729 12.6612 0.267071 12.5142 0.391036 12.3903L12.3906 0.390729C12.6408 0.140549 12.9801 -2.63607e-09 13.3339 0C13.6878 2.63607e-09 14.0271 0.140549 14.2772 0.390729C14.5274 0.640908 14.668 0.980224 14.668 1.33403C14.668 1.68784 14.5274 2.02715 14.2772 2.27733L4.55257 12.0003H30.6667C31.0203 12.0003 31.3594 12.1408 31.6095 12.3909C31.8595 12.6409 32 12.98 32 13.3336Z" fill="white"/>
</svg>
