<svg width="18" height="18" viewBox="0 0 18 18" fill="none" xmlns="http://www.w3.org/2000/svg">
<path d="M17.6286 0.37628C17.4669 0.21471 17.265 0.0991599 17.0438 0.0415332C16.8225 -0.0160936 16.5899 -0.0137138 16.3699 0.0484273H16.3578L0.929917 4.72837C0.679453 4.80053 0.456835 4.94708 0.291564 5.14858C0.126293 5.35009 0.0261712 5.59705 0.00446702 5.85673C-0.0172372 6.11641 0.0405006 6.37655 0.170029 6.60268C0.299558 6.82882 0.494762 7.01026 0.729774 7.12298L7.55554 10.4465L10.8752 17.2663C10.9784 17.4866 11.1426 17.6727 11.3483 17.8027C11.5539 17.9327 11.7925 18.0012 12.0359 18C12.0728 18 12.1098 17.9984 12.1468 17.9952C12.4063 17.9742 12.6532 17.8743 12.8544 17.709C13.0555 17.5436 13.2013 17.3208 13.2721 17.0703L17.9501 1.64671C17.9501 1.64269 17.9501 1.63867 17.9501 1.63466C18.0131 1.41526 18.0165 1.18305 17.96 0.961899C17.9035 0.740746 17.7891 0.538619 17.6286 0.37628ZM12.0431 16.7022L12.0391 16.7135V16.7079L8.8191 10.0945L12.6773 6.23746C12.7928 6.11592 12.8562 5.95408 12.8541 5.78645C12.8519 5.61882 12.7844 5.45866 12.6658 5.34012C12.5472 5.22157 12.387 5.15403 12.2193 5.15188C12.0516 5.14974 11.8898 5.21316 11.7682 5.32863L7.91001 9.18572L1.29243 5.96666H1.2868H1.29805L16.7187 1.28591L12.0431 16.7022Z" fill="white"/>
</svg>
