<svg width="30" height="22" viewBox="0 0 30 22" fill="none" xmlns="http://www.w3.org/2000/svg">
<path d="M29.9997 13.005C29.9997 13.2702 29.8943 13.5246 29.7068 13.7121C29.5192 13.8996 29.2649 14.005 28.9997 14.005H26.9997V16.005C26.9997 16.2702 26.8943 16.5246 26.7068 16.7121C26.5192 16.8996 26.2649 17.005 25.9997 17.005C25.7345 17.005 25.4801 16.8996 25.2926 16.7121C25.105 16.5246 24.9997 16.2702 24.9997 16.005V14.005H22.9997C22.7345 14.005 22.4801 13.8996 22.2926 13.7121C22.105 13.5246 21.9997 13.2702 21.9997 13.005C21.9997 12.7398 22.105 12.4854 22.2926 12.2979C22.4801 12.1104 22.7345 12.005 22.9997 12.005H24.9997V10.005C24.9997 9.73978 25.105 9.48543 25.2926 9.29789C25.4801 9.11036 25.7345 9.005 25.9997 9.005C26.2649 9.005 26.5192 9.11036 26.7068 9.29789C26.8943 9.48543 26.9997 9.73978 26.9997 10.005V12.005H28.9997C29.2649 12.005 29.5192 12.1104 29.7068 12.2979C29.8943 12.4854 29.9997 12.7398 29.9997 13.005ZM22.7659 20.3612C22.9367 20.5645 23.0197 20.8272 22.9967 21.0916C22.9737 21.356 22.8466 21.6005 22.6434 21.7712C22.4402 21.942 22.1775 22.025 21.9131 22.002C21.6486 21.979 21.4042 21.852 21.2334 21.6487C18.7184 18.6537 15.2609 17.005 11.4997 17.005C7.73843 17.005 4.28093 18.6537 1.76593 21.6487C1.59519 21.8518 1.35079 21.9787 1.08648 22.0016C0.82217 22.0244 0.559607 21.9414 0.35655 21.7706C0.153494 21.5999 0.0265778 21.3555 0.00372183 21.0912C-0.0191342 20.8269 0.0639422 20.5643 0.234675 20.3612C2.10218 18.1388 4.42468 16.56 7.00593 15.715C5.43831 14.7386 4.23133 13.2783 3.56759 11.5548C2.90386 9.83142 2.81949 7.93871 3.32724 6.16307C3.83499 4.38742 4.90724 2.82545 6.38176 1.71347C7.85629 0.60149 9.65286 0 11.4997 0C13.3465 0 15.1431 0.60149 16.6176 1.71347C18.0921 2.82545 19.1644 4.38742 19.6721 6.16307C20.1799 7.93871 20.0955 9.83142 19.4318 11.5548C18.768 13.2783 17.561 14.7386 15.9934 15.715C18.5747 16.56 20.8972 18.1388 22.7659 20.3612ZM11.4997 15.005C12.7853 15.005 14.042 14.6238 15.1109 13.9096C16.1798 13.1953 17.0129 12.1802 17.5049 10.9924C17.9969 9.80472 18.1256 8.49779 17.8748 7.23691C17.624 5.97604 17.0049 4.81785 16.0959 3.9088C15.1868 2.99976 14.0286 2.3807 12.7678 2.12989C11.5069 1.87909 10.2 2.00781 9.01223 2.49978C7.82451 2.99175 6.80935 3.82487 6.09512 4.89379C5.38089 5.96271 4.99968 7.21942 4.99968 8.505C5.00166 10.2283 5.68712 11.8804 6.90567 13.099C8.12423 14.3176 9.77638 15.003 11.4997 15.005Z" fill="black"/>
</svg>
