<svg width="32" height="31" viewBox="0 0 32 31" fill="none" xmlns="http://www.w3.org/2000/svg">
<path d="M29.2344 11.8767C28.9242 11.9286 28.6473 12.1016 28.4646 12.3577C28.2819 12.6138 28.2085 12.9319 28.2604 13.2421C28.3808 13.9613 28.4413 14.6893 28.4412 15.4185C28.444 18.6122 27.2702 21.695 25.144 24.0781C23.8213 22.1613 21.9613 20.6783 19.798 19.8158C20.96 18.9005 21.808 17.6459 22.2239 16.2264C22.6398 14.8068 22.6031 13.293 22.1188 11.8953C21.6344 10.4976 20.7266 9.28564 19.5215 8.42785C18.3164 7.57005 16.874 7.1091 15.3948 7.1091C13.9156 7.1091 12.4732 7.57005 11.2681 8.42785C10.063 9.28564 9.15515 10.4976 8.67083 11.8953C8.1865 13.293 8.14975 14.8068 8.56569 16.2264C8.98163 17.6459 9.82959 18.9005 10.9916 19.8158C8.82832 20.6783 6.96834 22.1613 5.64556 24.0781C3.97728 22.1982 2.88753 19.8764 2.50737 17.3919C2.1272 14.9073 2.47279 12.3659 3.50259 10.0731C4.53239 7.78037 6.20255 5.83387 8.31225 4.46769C10.422 3.1015 12.8814 2.37381 15.3948 2.37209C16.124 2.37198 16.852 2.43248 17.5712 2.55297C17.88 2.60169 18.1956 2.52651 18.4493 2.34376C18.703 2.16102 18.8742 1.88549 18.9258 1.57713C18.9774 1.26876 18.9051 0.952494 18.7248 0.697127C18.5444 0.441761 18.2704 0.26795 17.9626 0.213504C14.7417 -0.328345 11.4319 0.167448 8.51108 1.6293C5.5903 3.09115 3.20968 5.44341 1.71293 8.34646C0.216179 11.2495 -0.319245 14.5531 0.183965 17.7803C0.687175 21.0075 2.20298 23.9913 4.51252 26.3008C6.82206 28.6103 9.80583 30.1261 13.033 30.6294C16.2602 31.1326 19.5638 30.5971 22.4669 29.1004C25.3699 27.6036 27.7222 25.223 29.184 22.3022C30.6459 19.3815 31.1417 16.0717 30.5998 12.8507C30.5479 12.5405 30.3749 12.2636 30.1188 12.081C29.8628 11.8983 29.5446 11.8248 29.2344 11.8767ZM10.6506 14.2325C10.6506 13.2942 10.9289 12.3769 11.4502 11.5968C11.9715 10.8166 12.7124 10.2085 13.5793 9.84945C14.4462 9.49038 15.4001 9.39643 16.3203 9.57948C17.2406 9.76254 18.0859 10.2144 18.7494 10.8779C19.4129 11.5413 19.8647 12.3867 20.0478 13.3069C20.2309 14.2272 20.1369 15.1811 19.7778 16.048C19.4188 16.9149 18.8107 17.6558 18.0305 18.1771C17.2503 18.6984 16.3331 18.9766 15.3948 18.9766C14.1366 18.9766 12.9299 18.4768 12.0402 17.5871C11.1505 16.6974 10.6506 15.4907 10.6506 14.2325ZM7.4009 25.7222C8.2589 24.3804 9.44089 23.276 10.8379 22.5111C12.235 21.7462 13.8021 21.3452 15.3948 21.3452C16.9875 21.3452 18.5546 21.7462 19.9517 22.5111C21.3487 23.276 22.5307 24.3804 23.3887 25.7222C21.1031 27.4998 18.2903 28.4648 15.3948 28.4648C12.4993 28.4648 9.68649 27.4998 7.4009 25.7222ZM31.6524 3.21122L26.9083 7.95537C26.7981 8.06565 26.6673 8.15313 26.5233 8.21281C26.3793 8.2725 26.225 8.30322 26.0691 8.30322C25.9133 8.30322 25.7589 8.2725 25.615 8.21281C25.471 8.15313 25.3402 8.06565 25.23 7.95537L22.8579 5.58329C22.7478 5.4731 22.6603 5.34228 22.6007 5.1983C22.5411 5.05433 22.5104 4.90001 22.5104 4.74417C22.5104 4.58833 22.5411 4.43402 22.6007 4.29004C22.6603 4.14607 22.7478 4.01524 22.8579 3.90505C23.0805 3.6825 23.3823 3.55747 23.6971 3.55747C23.8529 3.55747 24.0072 3.58817 24.1512 3.64781C24.2952 3.70744 24.426 3.79485 24.5362 3.90505L26.0691 5.43949L29.9742 1.53297C30.0844 1.42278 30.2152 1.33537 30.3592 1.27573C30.5031 1.21609 30.6575 1.1854 30.8133 1.1854C30.9691 1.1854 31.1235 1.21609 31.2674 1.27573C31.4114 1.33537 31.5422 1.42278 31.6524 1.53297C31.7626 1.64317 31.85 1.77399 31.9097 1.91796C31.9693 2.06194 32 2.21625 32 2.37209C32 2.52793 31.9693 2.68225 31.9097 2.82622C31.85 2.9702 31.7626 3.10102 31.6524 3.21122Z" fill="black"/>
</svg>
