<svg width="27" height="27" viewBox="0 0 27 27" fill="none" xmlns="http://www.w3.org/2000/svg">
<path d="M16.0276 11.0276C16.0276 11.2928 15.9223 11.5472 15.7347 11.7347C15.5472 11.9223 15.2928 12.0276 15.0276 12.0276H12.0276V15.0276C12.0276 15.2928 11.9223 15.5472 11.7347 15.7347C11.5472 15.9223 11.2928 16.0276 11.0276 16.0276C10.7624 16.0276 10.5081 15.9223 10.3205 15.7347C10.133 15.5472 10.0276 15.2928 10.0276 15.0276V12.0276H7.02763C6.76241 12.0276 6.50806 11.9223 6.32052 11.7347C6.13299 11.5472 6.02763 11.2928 6.02763 11.0276C6.02763 10.7624 6.13299 10.5081 6.32052 10.3205C6.50806 10.133 6.76241 10.0276 7.02763 10.0276H10.0276V7.02763C10.0276 6.76241 10.133 6.50806 10.3205 6.32052C10.5081 6.13299 10.7624 6.02763 11.0276 6.02763C11.2928 6.02763 11.5472 6.13299 11.7347 6.32052C11.9223 6.50806 12.0276 6.76241 12.0276 7.02763V10.0276H15.0276C15.2928 10.0276 15.5472 10.133 15.7347 10.3205C15.9223 10.5081 16.0276 10.7624 16.0276 11.0276ZM25.7351 25.7351C25.6423 25.8281 25.532 25.9019 25.4106 25.9522C25.2892 26.0025 25.159 26.0284 25.0276 26.0284C24.8962 26.0284 24.7661 26.0025 24.6447 25.9522C24.5233 25.9019 24.413 25.8281 24.3201 25.7351L18.0626 19.4764C15.8848 21.2904 13.0914 22.195 10.2635 22.0019C7.43573 21.8089 4.7912 20.533 2.88009 18.4398C0.968989 16.3466 -0.0615536 13.5972 0.00284627 10.7635C0.0672461 7.92984 1.22163 5.23008 3.22586 3.22586C5.23008 1.22163 7.92984 0.0672461 10.7635 0.00284627C13.5972 -0.0615536 16.3466 0.968989 18.4398 2.88009C20.533 4.7912 21.8089 7.43573 22.0019 10.2635C22.195 13.0914 21.2904 15.8848 19.4764 18.0626L25.7351 24.3201C25.8281 24.413 25.9019 24.5233 25.9522 24.6447C26.0025 24.7661 26.0284 24.8962 26.0284 25.0276C26.0284 25.159 26.0025 25.2892 25.9522 25.4106C25.9019 25.532 25.8281 25.6423 25.7351 25.7351ZM11.0276 20.0276C12.8077 20.0276 14.5477 19.4998 16.0278 18.5109C17.5078 17.5219 18.6614 16.1163 19.3425 14.4718C20.0237 12.8272 20.202 11.0176 19.8547 9.27182C19.5074 7.52599 18.6503 5.92234 17.3916 4.66367C16.1329 3.40499 14.5293 2.54783 12.7834 2.20056C11.0376 1.85329 9.22801 2.03152 7.58348 2.71271C5.93894 3.3939 4.53334 4.54745 3.5444 6.0275C2.55547 7.50754 2.02763 9.2476 2.02763 11.0276C2.03028 13.4138 2.97934 15.7014 4.66659 17.3887C6.35385 19.0759 8.64149 20.025 11.0276 20.0276Z" fill="white"/>
</svg>
